HIERARCHY
ROOT hip
{
  OFFSET 0 0 0
  CHANNELS 6 Xposition Yposition Zposition Zrotation Yrotation Xrotation
  JOINT abdomen
  {
    OFFSET 0 20.6881 -0.73152
    CHANNELS 3 Zrotation Xrotation Yrotation
    JOINT chest
    {
      OFFSET 0 11.7043 -0.48768
      CHANNELS 3 Zrotation Xrotation Yrotation
      JOINT neck
      {
        OFFSET 0 22.1894 -2.19456
        CHANNELS 3 Zrotation Xrotation Yrotation
        JOINT head
        {
          OFFSET -0.24384 7.07133 1.2192
          CHANNELS 3 Zrotation Xrotation Yrotation
          JOINT leftEye
          {
            OFFSET 4.14528 8.04674 8.04672
            CHANNELS 3 Zrotation Xrotation Yrotation
            End Site
            {
              OFFSET 1 0 0
            }
          }
          JOINT rightEye
          {
            OFFSET -3.6576 8.04674 8.04672
            CHANNELS 3 Zrotation Xrotation Yrotation
            End Site
            {
              OFFSET 1 0 0
            }
          }
        }
      }
      JOINT rCollar
      {
        OFFSET -2.68224 19.2634 -4.8768
        CHANNELS 3 Zrotation Xrotation Yrotation
        JOINT rShldr
        {
          OFFSET -8.77824 -1.95073 1.46304
          CHANNELS 3 Zrotation Xrotation Yrotation
          JOINT rForeArm
          {
            OFFSET -28.1742 -1.7115 0.48768
            CHANNELS 3 Zrotation Xrotation Yrotation
            JOINT rHand
            {
              OFFSET -22.5879 0.773209 7.07136
              CHANNELS 3 Zrotation Xrotation Yrotation
              JOINT rThumb1
              {
                OFFSET -1.2192 -0.487915 3.41376
                CHANNELS 3 Zrotation Xrotation Yrotation
                JOINT rThumb2
                {
                  OFFSET -3.37035 -0.52449 3.41376
                  CHANNELS 3 Zrotation Xrotation Yrotation
                  End Site
                  {
                    OFFSET -1.78271 -1.18214 1.43049
                  }
                }
              }
              JOINT rIndex1
              {
                OFFSET -7.75947 0.938293 5.60832
                CHANNELS 3 Zrotation Xrotation Yrotation
                JOINT rIndex2
                {
                  OFFSET -2.54057 -0.884171 1.56538
                  CHANNELS 3 Zrotation Xrotation Yrotation
                  End Site
                  {
                    OFFSET -1.62519 -0.234802 1.16502
                  }
                }
              }
              JOINT rMid1
              {
                OFFSET -8.24714 1.18213 3.41376
                CHANNELS 3 Zrotation Xrotation Yrotation
                JOINT rMid2
                {
                  OFFSET -3.10165 -0.590103 1.0647
                  CHANNELS 3 Zrotation Xrotation Yrotation
                  End Site
                  {
                    OFFSET -2.48547 -0.328903 0.83742
                  }
                }
              }
              JOINT rRing1
              {
                OFFSET -8.82822 0.546677 1.51678
                CHANNELS 3 Zrotation Xrotation Yrotation
                JOINT rRing2
                {
                  OFFSET -2.60934 -0.819778 -0.0198488
                  CHANNELS 3 Zrotation Xrotation Yrotation
                  End Site
                  {
                    OFFSET -2.33842 -0.294052 0.168128
                  }
                }
              }
              JOINT rPinky1
              {
                OFFSET -8.27202 -0.0477905 -0.4584
                CHANNELS 3 Zrotation Xrotation Yrotation
                JOINT rPinky2
                {
                  OFFSET -1.82734 -0.647385 -0.700984
                  CHANNELS 3 Zrotation Xrotation Yrotation
                  End Site
                  {
                    OFFSET -1.69225 -0.51767 -0.607171
                  }
                }
              }
            }
          }
        }
      }
      JOINT lCollar
      {
        OFFSET 2.68224 19.2634 -4.8768
        CHANNELS 3 Zrotation Xrotation Yrotation
        JOINT lShldr
        {
          OFFSET 8.77824 -1.95073 1.46304
          CHANNELS 3 Zrotation Xrotation Yrotation
          JOINT lForeArm
          {
            OFFSET 28.1742 -1.7115 0.48768
            CHANNELS 3 Zrotation Xrotation Yrotation
            JOINT lHand
            {
              OFFSET 22.5879 0.773209 7.07136
              CHANNELS 3 Zrotation Xrotation Yrotation
              JOINT lThumb1
              {
                OFFSET 1.2192 -0.487915 3.41376
                CHANNELS 3 Zrotation Xrotation Yrotation
                JOINT lThumb2
                {
                  OFFSET 3.37035 -0.52449 3.41376
                  CHANNELS 3 Zrotation Xrotation Yrotation
                  End Site
                  {
                    OFFSET 1.78271 -1.18214 1.43049
                  }
                }
              }
              JOINT lIndex1
              {
                OFFSET 7.75947 0.938293 5.60832
                CHANNELS 3 Zrotation Xrotation Yrotation
                JOINT lIndex2
                {
                  OFFSET 2.54057 -0.884171 1.56538
                  CHANNELS 3 Zrotation Xrotation Yrotation
                  End Site
                  {
                    OFFSET 1.62519 -0.234802 1.16502
                  }
                }
              }
              JOINT lMid1
              {
                OFFSET 8.24714 1.18213 3.41376
                CHANNELS 3 Zrotation Xrotation Yrotation
                JOINT lMid2
                {
                  OFFSET 3.10165 -0.590103 1.0647
                  CHANNELS 3 Zrotation Xrotation Yrotation
                  End Site
                  {
                    OFFSET 2.48547 -0.328903 0.83742
                  }
                }
              }
              JOINT lRing1
              {
                OFFSET 8.82822 0.546677 1.51678
                CHANNELS 3 Zrotation Xrotation Yrotation
                JOINT lRing2
                {
                  OFFSET 2.60934 -0.819778 -0.0198488
                  CHANNELS 3 Zrotation Xrotation Yrotation
                  End Site
                  {
                    OFFSET 2.33842 -0.294052 0.168128
                  }
                }
              }
              JOINT lPinky1
              {
                OFFSET 8.27202 -0.0477905 -0.4584
                CHANNELS 3 Zrotation Xrotation Yrotation
                JOINT lPinky2
                {
                  OFFSET 1.82734 -0.647385 -0.700984
                  CHANNELS 3 Zrotation Xrotation Yrotation
                  End Site
                  {
                    OFFSET 1.69225 -0.51767 -0.607171
                  }
                }
              }
            }
          }
        }
      }
    }
  }
  JOINT rButtock
  {
    OFFSET -8.77824 4.35084 1.2192
    CHANNELS 3 Zrotation Xrotation Yrotation
    JOINT rThigh
    {
      OFFSET 0 -1.70687 -2.19456
      CHANNELS 3 Zrotation Xrotation Yrotation
      JOINT rShin
      {
        OFFSET 0 -36.8199 0.73152
        CHANNELS 3 Zrotation Xrotation Yrotation
        JOINT rFoot
        {
          OFFSET 0.73152 -45.1104 -5.12064
          CHANNELS 3 Zrotation Xrotation Yrotation
          End Site
          {
            OFFSET -1.1221 -3.69964 12.103
          }
        }
      }
    }
  }
  JOINT lButtock
  {
    OFFSET 8.77824 4.35084 1.2192
    CHANNELS 3 Zrotation Xrotation Yrotation
    JOINT lThigh
    {
      OFFSET 0 -1.70687 -2.19456
      CHANNELS 3 Zrotation Xrotation Yrotation
      JOINT lShin
      {
        OFFSET 0 -36.8199 0.73152
        CHANNELS 3 Zrotation Xrotation Yrotation
        JOINT lFoot
        {
          OFFSET -0.73152 -45.1104 -5.12064
          CHANNELS 3 Zrotation Xrotation Yrotation
          End Site
          {
            OFFSET 1.1221 -3.69964 12.103
          }
        }
      }
    }
  }
}
MOTION
Frames:	4
Frame Time:	0.03333
0.039250426925718784 61.82097792625427 0.1808416098356247 -3.4640846252441406 4.077434539794922 5.447516918182373 -2.4147250652313232 15.257871627807617 3.8557145595550537 2.713543653488159 -10.058768272399902 1.0488277673721313 -5.110634803771973 15.154988288879395 -3.5303590297698975 8.921737670898438 -24.387418746948242 -4.838412761688232 0.007206486072391272 0.06908583641052246 0.06731901317834854 0.020028147846460342 -0.014767209999263287 -0.05049396678805351 0.007144738454371691 -0.028762411326169968 -0.010362070985138416 40.88471603393555 34.36699295043945 18.726768493652344 -28.62232208251953 -28.85321807861328 63.28273010253906 -0.15378274023532867 -10.738846778869629 -2.0138518810272217 0.02186928316950798 0.09876973181962967 -0.03203947842121124 0.0024372010957449675 -0.07374732196331024 -0.0907130017876625 0.05508676916360855 -0.0007187616429291666 0.02710334025323391 7.763515949249268 5.460351943969727 0.407670795917511 -0.025335796177387238 0.10855576395988464 0.02394183538854122 2.9774231910705566 1.0211265087127686 0.006965272128582001 -0.10596946626901627 -0.12188252806663513 0.07707078009843826 10.225528717041016 0.7189996242523193 -0.021920261904597282 0.047743283212184906 -0.07108046859502792 0.025442352518439293 2.212247848510742 -0.7037253975868225 -0.2225607931613922 -0.036855969578027725 -0.016574420034885406 0.16523006558418274 -48.29450607299805 36.383323669433594 -27.424304962158203 27.88722801208496 -27.18929100036621 -60.98546600341797 0.24086220562458038 -14.684188842773438 2.480496644973755 -0.06809810549020767 -0.09728559106588364 -0.12214723974466324 -0.05635901540517807 -0.11900018155574799 -0.022934602573513985 -0.01804676651954651 -0.08266717195510864 0.05608351528644562 -7.83509635925293 5.550506114959717 -0.3766907751560211 0.004421210382133722 0.030179932713508606 -0.047195423394441605 -2.9411449432373047 0.9498627185821533 -0.09399458020925522 -0.006281173788011074 0.05038585886359215 -0.06829529255628586 -10.270702362060547 0.7122218608856201 0.014748305082321167 0.06156119331717491 -0.005511609371751547 0.05270705372095108 -2.227039098739624 -0.6872991919517517 0.1777431070804596 0.07472915202379227 -0.057629019021987915 -0.06747112423181534 -25.021350860595703 -39.33315658569336 -21.2043399810791 -1.3049452304840088 63.441280364990234 2.3095438480377197 -3.6592423915863037 -11.162821769714355 -9.801481246948242 -0.05048475041985512 0.20036549866199493 -0.03039916604757309 29.05125617980957 -38.42587661743164 22.204309463500977 1.4343223571777344 64.54388427734375 -2.7089920043945312 4.255333423614502 -11.204141616821289 13.09608268737793
0.028320890851318836 63.64942193031311 0.2525078132748604 -4.8001909255981445 1.7219302654266357 5.568296432495117 -2.4602272510528564 14.095332145690918 3.3929007053375244 2.8707804679870605 -9.290628433227539 1.1299763917922974 -5.636319160461426 15.31116771697998 -4.262549877166748 8.990532875061035 -23.79058265686035 -6.44734001159668 0.05689183250069618 0.021043332293629646 -0.031917087733745575 -0.05077728256583214 -0.0946928858757019 0.04295750707387924 0.06205670163035393 0.13083921372890472 -0.07243233919143677 45.99633026123047 37.74917984008789 17.28209114074707 -26.89946746826172 -27.16435432434082 64.06301879882812 -0.1687299609184265 -9.685935020446777 -1.2130602598190308 0.09335076808929443 -0.2098042368888855 0.09689586609601974 0.026318365707993507 0.11487725377082825 0.09577714651823044 0.0831795483827591 0.02188940905034542 0.02534012496471405 7.686249732971191 5.265227794647217 0.4866126775741577 0.007105773314833641 -0.07447777688503265 -0.07491592317819595 2.7828269004821777 1.0442026853561401 0.19493120908737183 -0.1359218955039978 0.1392190307378769 0.010278145782649517 10.217312812805176 0.6172916293144226 0.04447731748223305 0.0766359195113182 0.06965641677379608 -0.05331134423613548 2.412109136581421 -0.744718074798584 -0.15474055707454681 0.034811556339263916 -0.07499812543392181 -0.21918444335460663 -53.801048278808594 39.81275177001953 -27.417999267578125 26.647212982177734 -25.612524032592773 -61.367942810058594 0.233087956905365 -11.2388334274292 1.4094910621643066 0.007499909959733486 -0.02892991155385971 0.009679737500846386 0.20794647932052612 0.041325755417346954 0.058085471391677856 0.11488501727581024 0.06896790117025375 0.019491221755743027 -7.682819366455078 5.377468585968018 -0.4226534366607666 -0.13286766409873962 -0.05723916366696358 0.08807256072759628 -2.8861820697784424 0.991654098033905 -0.06736469268798828 0.05307456851005554 0.03700300306081772 0.06199105456471443 -10.192654609680176 0.669599711894989 -0.11033076792955399 -0.028754107654094696 -0.1481647789478302 -0.02446056343615055 -2.118180274963379 -0.7621349692344666 0.17866411805152893 -0.04253276810050011 0.12879370152950287 0.08259487897157669 -23.620899200439453 -40.44813919067383 -18.660511016845703 -1.1192841529846191 65.88595581054688 2.3936939239501953 -3.7571561336517334 -10.755829811096191 -10.305192947387695 -0.061325058341026306 -0.08440303057432175 0.06348168104887009 28.685115814208984 -40.0098876953125 21.260953903198242 1.820667028427124 65.81340789794922 -2.8668179512023926 4.053638458251953 -10.70304012298584 14.143999099731445
0.4688637563958764 58.33984017372131 0.6448317319154739 -22.88096046447754 9.281831741333008 -0.6848611831665039 10.742218971252441 11.878528594970703 4.513812065124512 0.918191134929657 -7.805318832397461 0.8395086526870728 1.5400152206420898 11.54293441772461 9.11266040802002 3.327781915664673 -21.51467514038086 17.82872772216797 -0.4529867172241211 -0.22818370163440704 0.0874527096748352 -0.17430493235588074 0.20393575727939606 0.07686663419008255 -0.11690772324800491 -0.20328931510448456 -0.20123472809791565 116.8525390625 48.492210388183594 -62.997684478759766 -24.627666473388672 -45.87841033935547 98.1816635131836 -58.185970306396484 -80.72086334228516 -66.1245346069336 -0.2369413524866104 0.24920210242271423 -0.4931381344795227 0.11287318915128708 -0.4243922531604767 0.024426154792308807 -0.012601050548255444 0.09047887474298477 -0.2452242076396942 7.12855339050293 5.323483943939209 0.10215982794761658 -0.29502546787261963 -0.17178837954998016 -0.10231073945760727 3.024824380874634 1.4225401878356934 -0.5542430877685547 -0.12552572786808014 0.1112750843167305 -0.03346671164035797 10.259611129760742 0.627439022064209 0.3727835416793823 0.05634322017431259 0.17861464619636536 -0.3566248416900635 1.9544508457183838 -0.9509184956550598 -0.8681976199150085 -0.3499356210231781 0.15007734298706055 -0.35647058486938477 -55.6202278137207 -15.750189781188965 -71.08162689208984 9.116379737854004 -3.7068850994110107 -18.02524757385254 9.435656547546387 62.24447250366211 -16.491527557373047 -0.36699795722961426 0.11742351204156876 -0.3504079580307007 -0.4053678810596466 -0.637086808681488 0.2050936073064804 0.5165033936500549 -0.7225220203399658 -0.08719579130411148 -7.55637788772583 4.866751670837402 -0.261554092168808 0.07240714132785797 0.3329477608203888 -0.05898986756801605 -3.132136344909668 1.3895753622055054 -0.11317349225282669 -0.24897144734859467 0.06399468332529068 0.4662889838218689 -10.329703330993652 0.44288134574890137 -0.18136924505233765 -0.12468711286783218 -0.11755374073982239 0.44178423285484314 -2.1329922676086426 -0.1538371443748474 0.5334697961807251 0.0213635116815567 -0.38411250710487366 -0.2999957799911499 -8.51011848449707 -1.5844917297363281 -5.596493721008301 -0.7168444991111755 48.13206100463867 3.137291669845581 -13.59599494934082 -21.321102142333984 -31.60883331298828 -0.6672784686088562 0.08036129921674728 -0.6915262937545776 81.29288482666016 -55.076873779296875 72.16936492919922 4.440135478973389 75.19651794433594 -4.247987270355225 0.18926899135112762 2.1389050483703613 -4.751634120941162
1.2715230928733945 60.62186360359192 2.7319656684994698 -32.228092193603516 52.847679138183594 -0.2296971082687378 9.392156600952148 10.691057205200195 2.5202419757843018 3.0008881092071533 -7.5808024406433105 0.6325514912605286 0.08134658634662628 12.213295936584473 7.482843399047852 4.898731708526611 -22.471012115478516 16.795061111450195 -0.8488878607749939 0.028594184666872025 0.39631620049476624 -1.0570554733276367 -0.12029359489679337 0.9427022337913513 0.022930698469281197 0.7276745438575745 -0.8505900502204895 111.08353424072266 40.36992263793945 -60.91121292114258 -24.804718017578125 -46.9592399597168 101.3721923828125 -148.83999633789062 -70.01544189453125 -157.74368286132812 0.031221993267536163 -0.5951113104820251 -0.5547346472740173 -0.6651897430419922 -0.45928654074668884 0.35807472467422485 -0.32524847984313965 0.17052637040615082 -0.7051516175270081 6.738058090209961 5.225030899047852 0.2549428343772888 -0.054915037006139755 0.3522736132144928 0.8276715874671936 2.5528414249420166 1.6091604232788086 0.7056352496147156 0.10364546626806259 -0.21194615960121155 -0.14017650485038757 9.837674140930176 0.8212257027626038 1.2443739175796509 0.3964167535305023 -0.10024269670248032 0.33116793632507324 2.6776962280273438 -2.3748488426208496 -1.0607917308807373 0.21325169503688812 -0.23366592824459076 -0.5525166392326355 -69.94685363769531 -22.343124389648438 -86.70633697509766 0.9343142509460449 0.5047013759613037 -1.6482702493667603 30.79184341430664 78.05563354492188 -38.583091735839844 -0.2027832567691803 -0.03133493661880493 -0.8874672651290894 0.07780352234840393 0.3033807873725891 -0.179826021194458 0.0367550291121006 -1.5747220516204834 -0.2771626114845276 -8.204475402832031 5.401595115661621 0.21648259460926056 -0.38822224736213684 0.48755377531051636 0.07730168104171753 -4.214751720428467 2.387805938720703 0.40719369053840637 0.1976720690727234 0.08654405921697617 0.35360515117645264 -11.121180534362793 0.15222661197185516 -0.22465892136096954 0.9871677160263062 -0.31840941309928894 0.15285570919513702 -2.2146377563476562 0.9239031076431274 1.2046045064926147 -0.9497938752174377 -0.7671060562133789 -1.8207439184188843 -10.004273414611816 -2.4616196155548096 -7.034368515014648 0.4472157061100006 45.097557067871094 3.0412979125976562 -12.415914535522461 -19.283554077148438 -29.623607635498047 -0.9623127579689026 0.20722591876983643 0.3433867394924164 67.80227661132812 -55.93608856201172 56.91350173950195 4.734633445739746 70.53954315185547 -4.713569641113281 0.5405072569847107 0.27353301644325256 -7.034008979797363
